<svg width="257px" height="48px" viewBox="0 0 257 48" version="1.1" xmlns="http://www.w3.org/2000/svg" xmlns:xlink="http://www.w3.org/1999/xlink">
    <g id="Page-1" stroke="none" stroke-width="1" fill="none" fill-rule="evenodd">
        <path d="M8.9735982,-3.62544108e-16 L248.026402,3.62544108e-16 C251.146717,-2.10648567e-16 252.278219,0.324889639 253.41896,0.934964463 C254.559701,1.54503929 255.454961,2.4402993 256.065036,3.58104004 C256.67511,4.72178078 257,5.85328261 257,8.9735982 L257,39.0264018 C257,42.1467174 256.67511,43.2782192 256.065036,44.41896 C255.454961,45.5597007 254.559701,46.4549607 253.41896,47.0650355 C252.278219,47.6751104 251.146717,48 248.026402,48 L8.9735982,48 C5.85328261,48 4.72178078,47.6751104 3.58104004,47.0650355 C2.4402993,46.4549607 1.54503929,45.5597007 0.934964463,44.41896 C0.324889639,43.2782192 1.40432378e-16,42.1467174 -2.41696072e-16,39.0264018 L2.41696072e-16,8.9735982 C-1.40432378e-16,5.85328261 0.324889639,4.72178078 0.934964463,3.58104004 C1.54503929,2.4402993 2.4402993,1.54503929 3.58104004,0.934964463 C4.72178078,0.324889639 5.85328261,2.10648567e-16 8.9735982,-3.62544108e-16 Z"
              id="Rectangle" fill="#007AFF"></path>
    </g>
</svg>