<?xml version="1.0" encoding="UTF-8"?>
<svg width="56px" height="56px" viewBox="0 0 56 56" version="1.1" xmlns="http://www.w3.org/2000/svg" xmlns:xlink="http://www.w3.org/1999/xlink">
    <title>Plus</title>
    <g id="Page-1" stroke="none" stroke-width="1" fill="none" fill-rule="evenodd">
        <!--        <g id="Icon" transform="translate(-10.000000, -84.000000)">-->
        <!--            <g id="Plus" transform="translate(10.000000, 84.000000)">-->
        <circle id="Oval" stroke="#007AFF" stroke-width="4" cx="28" cy="28" r="26"></circle>
        <path d="M28,14 C29.1045695,14 30,14.8954305 30,16 L30,24 C30,25.1045695 30.8954305,26 32,26 L40,26 C41.1045695,26 42,26.8954305 42,28 C42,29.1045695 41.1045695,30 40,30 L32,30 C30.8954305,30 30,30.8954305 30,32 L30,40 C30,41.1045695 29.1045695,42 28,42 C26.8954305,42 26,41.1045695 26,40 L26,32 C26,30.8954305 25.1045695,30 24,30 L16,30 C14.8954305,30 14,29.1045695 14,28 C14,26.8954305 14.8954305,26 16,26 L24,26 C25.1045695,26 26,25.1045695 26,24 L26,16 C26,14.8954305 26.8954305,14 28,14 Z"
              id="Path" fill="#007AFF"></path>
        <!--            </g>-->
        <!--        </g>-->
    </g>
</svg>