<?xml version="1.0" encoding="UTF-8"?>
<svg width="28px" height="28px" viewBox="0 0 28 28" version="1.1" xmlns="http://www.w3.org/2000/svg" xmlns:xlink="http://www.w3.org/1999/xlink">
    <g id="Page-1" stroke="none" stroke-width="1" fill="none" fill-rule="evenodd">
        <g id="Icon" transform="translate(-89.000000, -9.000000)">
            <g id="Plus-Icon" transform="translate(89.000000, 9.000000)">
                <circle id="Oval" stroke="#007AFF" stroke-width="2" cx="14" cy="14" r="13"></circle>
                <path d="M14,6 C14.5522847,6 15,6.44771525 15,7 L15,13 L21,13 C21.5522847,13 22,13.4477153 22,14 C22,14.5522847 21.5522847,15 21,15 L15,15 L15,21 C15,21.5522847 14.5522847,22 14,22 C13.4477153,22 13,21.5522847 13,21 L13,15 L7,15 C6.44771525,15 6,14.5522847 6,14 C6,13.4477153 6.44771525,13 7,13 L13,13 L13,7 C13,6.44771525 13.4477153,6 14,6 Z"
                      id="Path" fill="#007AFF"></path>
            </g>
        </g>
    </g>
</svg>