<svg width="64px" height="28px" viewBox="0 0 64 28" version="1.1" xmlns="http://www.w3.org/2000/svg" xmlns:xlink="http://www.w3.org/1999/xlink">
    <g id="Page-1" stroke="none" stroke-width="1" fill="none" fill-rule="evenodd">
        <path d="M10.2555408,-4.14336123e-16 L53.7444592,4.14336123e-16 C57.3105342,-2.4074122e-16 58.6036791,0.371302445 59.9073828,1.06853082 C61.2110865,1.76575919 62.2342408,2.78891348 62.9314692,4.09261719 C63.6286976,5.39632089 64,6.68946584 64,10.2555408 L64,17.7444592 C64,21.3105342 63.6286976,22.6036791 62.9314692,23.9073828 C62.2342408,25.2110865 61.2110865,26.2342408 59.9073828,26.9314692 C58.6036791,27.6286976 57.3105342,28 53.7444592,28 L10.2555408,28 C6.68946584,28 5.39632089,27.6286976 4.09261719,26.9314692 C2.78891348,26.2342408 1.76575919,25.2110865 1.06853082,23.9073828 C0.371302445,22.6036791 1.60494146e-16,21.3105342 -2.76224082e-16,17.7444592 L2.76224082e-16,10.2555408 C-1.60494146e-16,6.68946584 0.371302445,5.39632089 1.06853082,4.09261719 C1.76575919,2.78891348 2.78891348,1.76575919 4.09261719,1.06853082 C5.39632089,0.371302445 6.68946584,2.4074122e-16 10.2555408,-4.14336123e-16 Z"
              id="Rectangle" fill="#000000"></path>
    </g>
</svg>